<?xml version="1.0" encoding="utf-8"?>
<!-- Generator: Adobe Illustrator 20.1.0, SVG Export Plug-In . SVG Version: 6.00 Build 0)  -->
<svg version="1.1" id="Capa_1" xmlns="http://www.w3.org/2000/svg" xmlns:xlink="http://www.w3.org/1999/xlink" x="0px" y="0px"
	 viewBox="0 0 1004.5 428.3" style="enable-background:new 0 0 1004.5 428.3;" xml:space="preserve">
<style type="text/css">
	.st0{fill:#262626;}
	.st1{fill:#D42200;}
</style>
<path class="st0" d="M479.1,72.6c-2.7,6.4-42.1,17.9-42.2,13.8c0-1.6-0.1-3.8,0.6-4.1C442.7,80,460.4,74.5,479.1,72.6z"/>
<path class="st0" d="M526.1,0.1c157.5,0,314.9,0,472.4-0.1c4.4,0,5.8,0.9,5.7,5.6c-0.3,17.2-0.2,34.3-0.1,51.5
	c0,3.2-0.7,4.2-4.1,4.1c-9.2-0.2-18.3-0.2-27.5,0c-2.8,0.1-3.7-0.8-3.6-3.6c0.2-6.7-0.1-13.3,0.1-20c0.1-2.9-0.9-3.9-3.6-3.5
	c-0.8,0.1-1.7,0-2.5,0c-291.6,0-583.2,0-874.8-0.1c-4.9,0-6.7,0.9-6.2,6.1c0.5,6.3,0,12.7,0.2,19c0.1,2.4-0.6,3.1-3.1,3.1
	c-9.7-0.1-19.3-0.1-29,0c-2.4,0-3.1-0.7-3-3.1c0.1-18.7,0.1-37.3,0-56c0-2.5,0.8-3.3,3.1-3c1.2,0.1,2.3,0,3.5,0
	C211.2,0.1,368.6,0.1,526.1,0.1z"/>
<path class="st0" d="M525.6,329.1c-157.6,0-315.3,0-472.9,0.1c-4.4,0-5.8-0.9-5.7-5.6c0.3-14.5,0.2-29,0-43.5c0-3.2,0.8-4.2,4.1-4.1
	c9.2,0.2,18.3,0.2,27.5,0c2.9-0.1,3.7,0.8,3.6,3.6c-0.2,4,0.1,8-0.1,12c-0.2,3,0.9,3.9,3.7,3.5c0.8-0.1,1.7,0,2.5,0
	c291.6,0,583.2,0,874.8,0.1c4.9,0,6.7-1,6.2-6.1c-0.5-4.4-1.7-10.4,0.6-13c2.6-3,8.7-0.8,13.3-0.9c5.8-0.2,11.7,0,17.5-0.1
	c2.3,0,3.6,0.2,3.5,3.1c-0.1,16-0.1,32,0,48c0,2.5-0.9,3.2-3.2,3c-1.2-0.1-2.3,0-3.5,0C840.2,329.1,682.9,329.1,525.6,329.1z"/>
<path class="st0" d="M715.7,170.1c0,27.5-0.1,55,0.1,82.5c0,3.8-1.1,4.7-4.7,4.6c-9.2-0.3-18.3-0.2-27.5,0c-2.9,0.1-3.6-0.8-3.6-3.6
	c0.1-14.7,0-29.3,0.1-44c0-3.3-0.5-4.6-4.2-4.5c-17,0.2-34,0.2-51,0c-3,0-3.9,0.7-3.9,3.8c0.2,14.7-0.1,29.3,0.2,44
	c0.1,3.6-1,4.4-4.4,4.3c-9.2-0.2-18.3-0.2-27.5,0c-2.5,0-3.4-0.5-3.4-3.2c0.1-39.8-0.3-79.7,0.3-119.5c0.4-28.1,22.8-53.9,51.9-60.2
	c23.5-5.1,46.7-1.9,69.3,5.5c8.4,2.7,8.4,2.9,8.4,11.9C715.7,117.8,715.7,143.9,715.7,170.1z M680.1,139.6c0-8.8-0.2-17.6,0.1-26.5
	c0.1-3.3-0.8-4.7-4.2-5.1c-8.3-1-16.5-1.2-24.8,0.2c-16.1,2.7-31,13.6-30,34.8c0.4,7.8,0.2,15.6,0,23.5c-0.1,2.8,0.7,3.7,3.6,3.6
	c17.3-0.1,34.6-0.1,51.9,0c2.8,0,3.6-0.7,3.6-3.6C680,157.6,680.1,148.6,680.1,139.6z"/>
<path class="st0" d="M863.5,257.1c-12.2,0-23.5-0.1-34.9,0.1c-2.3,0-3.5-0.8-4.6-2.8c-14.9-27.1-29.8-54.2-44.8-81.2
	c-1.7-3-1.3-4,2.3-3.8c4.8,0.2,9.7,0.1,14.5,0c17-0.2,30.1-11.5,31.9-27.6c1.8-15.7-9.1-30.1-25.7-33.6c-10.1-2.1-20.2-1.1-30.3,0.4
	c-3.7,0.5-2.8,3-2.8,5.1c0,45.7,0,91.3,0,137c0,6.4,0,6.4-6.6,6.4c-8.3,0-16.7-0.1-25,0.1c-2.7,0.1-3.7-0.6-3.7-3.5
	c0.1-56,0.1-112,0.1-168c0-1.6-0.1-3,2.1-3.8c22.9-8.6,46.4-12.3,70.6-8.5c27.9,4.3,50.1,25.4,55.5,51.4c5.8,27.8-5.2,54-29.4,70
	c-2.7,1.8-2.6,2.9-1.2,5.4c10.3,18.1,20.4,36.2,30.6,54.3C862.5,255.1,862.8,255.8,863.5,257.1z"/>
<path class="st0" d="M291.6,258.1c10.7-19,20.9-37.3,31.3-55.5c2-3.6,2.2-5.2-1.7-7.9c-22.9-15.9-33.2-38.3-28.5-65.7
	c4.9-28.9,23.4-46.9,51.8-53.7c21.7-5.2,43.4-2.1,64.5,4.2c4.1,1.2,9.7,1.3,11.6,4.7c1.9,3.3,0.7,8.4,0.7,12.7
	c0,52.2,0,104.3,0.1,156.5c0,3.8-0.8,5.1-4.8,4.9c-8.7-0.3-17.3-0.4-26,0c-3.9,0.1-4.6-1.1-4.5-4.7c0.1-46.2,0-92.3,0.2-138.5
	c0-4-1.1-5.5-5-5.9c-9.5-1-18.9-2-28.3,0c-15,3.2-25.5,15.6-25.7,29.7c-0.1,14.7,9.4,27.1,23.8,30.6c7.4,1.8,14.9,0.7,22.4,0.8
	c3.4,0,4.6,0.4,2.6,4c-15,26.9-29.8,53.8-44.6,80.8c-1,1.9-1.9,3.1-4.4,3.1C315.4,258,304,258.1,291.6,258.1z"/>
<path class="st0" d="M0.1,166.2C0.7,155.1-1,141.4,1,127.8c4.7-31.1,33.1-54.2,66-53.7c31,0.5,59.2,25.2,62.1,55.7
	c2.3,24.6,0.9,49.3,0.6,73.9c-0.1,5.1-1.3,10.2-3,15.1c-10.5,30.8-41.1,48.7-73.9,43.2c-29.9-5-52.6-32.6-52.7-63.9
	C0.1,188.4,0.1,178.5,0.1,166.2z M94.2,169c0-10,0.1-20,0-30c-0.3-17.1-13.1-30-29.5-29.9c-16,0.1-29.2,13.3-29.3,29.9
	c-0.2,19.8-0.2,39.6,0,59.4c0.2,16.5,13.5,29.6,29.5,29.6c16.3,0,29-12.8,29.3-29.6C94.4,188.6,94.2,178.8,94.2,169z"/>
<path class="st0" d="M874.9,170c0-27.7,0.1-55.3-0.1-83c0-3.5,1.1-4.9,4.3-5.9c9.1-2.8,18.4-4.4,27.8-5.8c3.6-0.6,3.2,1.4,3.2,3.6
	c0,19,0.1,38-0.1,57c0,3.5,0.8,4.8,4.4,4.1c9.2-1.9,18.6,0,27.9-1.7c13.1-2.4,27.8-12.5,26.9-32.5c-0.4-8.8,0-17.7-0.1-26.5
	c-0.1-3,0.4-4.4,3.9-4.3c9.3,0.3,18.7,0.1,28,0.1c1.5,0,3.5-0.7,3.4,2.2c-0.4,14.5,1.1,29-1,43.4c-2,13.6-8.8,25-18.6,34.5
	c-2,1.9-2.2,2.7-0.1,4.8c12.8,12.6,19.8,27.7,19.6,45.9c-0.2,15.8-0.1,31.7,0.1,47.5c0,2.6-0.3,3.9-3.4,3.8c-9.5-0.2-19-0.2-28.5,0
	c-3,0.1-3.5-1.1-3.4-3.7c0.1-15.3-0.4-30.7,0.2-46c0.7-19.7-15.9-32.4-32.2-33.3c-7.7-0.4-15.3,0-22.9,0.9c-3.1,0.4-4,1.6-4,4.8
	c0.1,24.2,0,48.3,0.2,72.5c0,4-1,5-4.9,4.8c-8.5-0.3-17-0.4-25.5,0c-4.4,0.2-5-1.3-5-5.3C875,224.6,874.9,197.3,874.9,170z"/>
<path class="st1" d="M479.1,72.6c24.3-1.9,48.2-1.2,68,15.7c21,18,29,41,21.6,67.7c-7.4,26.6-25.8,42.8-53.2,48.1
	c-11.2,2.2-22.6,0.9-33.9,0.9c-4.2,0-5.7,0.7-5.6,5.4c0.4,14.1,0,28.3,0.2,42.4c0.1,3.6-1,4.4-4.4,4.3c-10.3-0.3-20.6-0.2-30.9-0.2
	c0-58.3,0.1-116.7,0.1-175V82C441.9,82.1,474.2,73,479.1,72.6z M506.6,108.1c-8.6-1.5-17.2-0.9-25.8,0.2c-2.3,0.3-4.7,0.3-4.7,4.2
	c0.2,18.1,0.1,36.2,0,54.4c0,2.6,0.8,3.4,3.4,3.4c7.5-0.2,15,0.1,22.4-0.2c3.4-0.1,6.9-0.3,10-2c1.5,0.2,2.9,0.2,4.4-0.4
	c13.3-5,21.3-20,18.6-34.9C532.7,119.9,519.6,108.5,506.6,108.1z"/>
<path class="st0" d="M273.3,142.2c0,19,0.2,38-0.1,57c-0.5,33.8-26.7,61.7-59.6,63.8c-34.5,2.2-64.3-21.7-69.3-55.7
	c-0.4-3-0.4-6-0.4-9c0-36.7,0-73.3-0.1-110c0-3.8,1.1-5.4,4.8-6.5c8.5-2.5,17.1-4.1,25.8-5.4c3.6-0.5,4.8,0,4.8,4.1
	c-0.2,39.3-0.2,78.7,0,118c0.1,12.5,6.3,21.6,17.5,26.9c11.1,5.2,21.5,3.2,30.7-4.4c7.3-6.1,10.6-14.2,10.6-23.8
	c0-36.2,0.1-72.3-0.1-108.5c0-4.1,1.3-5.7,5-6.8c8.6-2.6,17.4-4.2,26.3-5.5c3.6-0.5,4.1,0.8,4,3.9
	C273.3,100.9,273.3,121.5,273.3,142.2L273.3,142.2z"/>
<path class="st1" d="M832.5,428.1c-19.2,0-33.3-13.7-33.3-32.2c0-19,14.3-32.8,33.9-32.8c19.3,0,33.7,14,33.7,32.6
	C866.8,414.4,852.3,428.1,832.5,428.1z M832.9,419.1c14,0,24.4-10,24.5-23.5c0.1-13.4-10.5-23.5-24.5-23.5
	c-14.2,0-24.3,9.8-24.4,23.5C808.5,409.1,818.9,419.1,832.9,419.1z"/>
<path class="st1" d="M283.1,428.1c-19,0-33.1-14-33-32.6c0.2-18.8,14.4-32.4,33.8-32.4c19.3,0,33.8,13.9,33.8,32.4
	C317.8,414.5,303.3,428.1,283.1,428.1z M283.8,419.1c14,0,24.5-9.9,24.7-23.4c0.2-13.4-10.4-23.6-24.3-23.6
	c-14.4,0-24.6,9.9-24.5,23.8C259.6,409.2,269.9,419.1,283.8,419.1z"/>
<path class="st1" d="M927.9,413c0-15.8,0.1-30-0.1-44.3c-0.1-3.6,0.6-4.8,4.5-4.8c3.8,0,4.2,1.5,4.2,4.7c-0.1,17.8,0,35.7-0.1,53.5
	c0,1.6,1.2,4.4-1,4.8c-2.8,0.5-6,1.3-8.6-1.9c-8.3-10-17-19.7-25.5-29.5c-4.5-5.2-8.9-10.3-13.4-15.5c-1.9,1.1-1,2.7-1,4.1
	c-0.1,13-0.2,26,0.1,39c0.1,3.8-1.4,4.2-4.6,4.2c-3.2,0-4.2-0.8-4.2-4.1c0.2-17.8,0-35.7,0.1-53.5c0-1.8-1.2-4.7,1.1-5.2
	c2.8-0.7,5.9-1,8.5,2.1c10.8,12.9,21.9,25.5,32.9,38.3C922.8,407.1,924.9,409.5,927.9,413z"/>
<path class="st1" d="M503.4,393.6c1.8,0.7,2.8,1,3.7,1.3c7,2.9,11,8.4,10.9,15.2c-0.1,6.8-4.5,12.9-11.6,15.3
	c-9.7,3.2-19.8,1.1-29.8,1.6c-1.8,0.1-1.6-1.3-1.6-2.4c0-19.3,0-38.7,0-58c0-1.9,0.6-2.7,2.5-2.6c6.6,0.3,13.3-0.5,19.9,0.5
	c7.2,1,12.7,4.4,14.5,11.8C513.8,383.7,511.4,389.8,503.4,393.6z M484,408.7c0,2.7,0,5.3,0,8c0,1.2-0.1,2.4,1.7,2.4
	c5.5-0.2,11,0.8,16.4-0.9c4.1-1.3,6.3-4.4,6.5-8.6c0.2-4-1.7-7-5.4-8.8c-2.9-1.4-6.1-1.7-9.2-1.7C484,399,484,399,484,408.7z
	 M490.6,372.1c-6.5,0-6.5,0-6.5,6.4c0,1.5,0,3,0,4.5c0,9,0.2,9.2,9.4,8c6.4-0.8,10-4.6,9.8-10.3C503,374.7,499.1,372.1,490.6,372.1z
	"/>
<path class="st1" d="M327.8,386.8c0-6.5,0.2-13-0.1-19.5c-0.2-3.9,2.1-3.3,4.4-3.3c2.4,0,4.9-0.9,4.8,3.4c-0.3,11.1-0.3,22.3,0,33.4
	c0.3,13.8,9.3,20.7,22.9,17.7c8-1.8,12.3-6.1,12.6-14.4c0.5-12,0.4-24,0.3-35.9c0-3.6,1-4.5,4.4-4.3c2.9,0.2,4.9-0.1,4.8,4.1
	c-0.3,11.5-0.2,23-0.2,34.4c-0.1,21.9-17.2,26.9-31.1,25.4c-15.1-1.6-22.4-9.9-22.8-25.1C327.6,397.5,327.8,392.2,327.8,386.8z"/>
<path class="st1" d="M174.8,397.7c9.4,7.9,13.8,19.4,21.4,28.7c-9.4,1.7-9.4,1.7-14.4-5.5c-3.5-5-6.1-10.7-10.4-15.2
	c-1.9-1.9-3.6-3.9-6.2-4.9c-5.9-2.4-8-1-8,5.2c0,6-0.2,12,0.1,18c0.2,4.1-2.4,3.1-4.5,3.1c-2,0-4.7,1.2-4.6-3
	c0.2-19,0.1-37.9,0.1-56.9c0-1.8,0-3.2,2.5-3.1c5.5,0.1,11-0.3,16.5,0.1c9.1,0.7,15.3,5.7,17,13
	C186.2,385.9,183.6,391.7,174.8,397.7z M157.2,382c1,10.6-3.8,12.2,11.3,9.4c5.1-1.5,7.7-6.2,6.6-11.8c-1.1-5.6-6.8-8.6-15.3-7.5
	C153.7,372.7,156.7,377,157.2,382z"/>
<path class="st1" d="M420.8,397.7c9.4,8,13.8,19.4,21.5,28.8c-6.9,1.9-11.6,0.4-14.9-6c-2.8-5.2-5.8-10.5-10-14.8
	c-1.7-1.8-3.4-3.7-5.7-4.7c-5.9-2.6-8.4-1.1-8.4,5.1c0,6-0.2,12,0.1,18c0.2,4.2-2.6,2.9-4.6,3c-2.1,0.1-4.6,1-4.6-3.1
	c0.2-19,0.1-37.9,0.1-56.9c0-1.5-0.3-3.1,2.1-3c6.5,0.3,13-0.7,19.4,0.6c8.4,1.6,13.3,6.2,14.7,13.6c1.5,8.1-1.1,13.7-8.4,18.6
	C421.6,397,421.2,397.3,420.8,397.7z M403.1,389.1c-0.2,2.5,0.8,3.3,3.1,3c2.6-0.3,5.3-0.1,7.9-0.7c5.3-1.2,7.9-5.7,7-11.4
	c-0.9-5.9-6.8-9.2-15.5-7.8c-4.1,0.4-2.7,5-2.5,8C403.5,383.3,403.3,386.8,403.1,389.1z"/>
<path class="st1" d="M616.7,397.7c9.4,7.9,13.8,19.4,21.4,28.7c-8.6,2-9.5,1.6-14.3-5.3c-3.7-5.3-6.4-11.3-11.1-15.9
	c-1.8-1.7-3.5-3.6-5.9-4.4c-5.9-2.1-7.6-1-7.6,5.2c0,5.8-0.3,11.7,0.1,17.5c0.3,3.9-1.7,3.7-4.4,3.8c-2.9,0-4.8,0.2-4.8-4
	c0.3-18.3,0.2-36.6,0.1-54.9c0-3,0.5-4.5,4-4.3c4.3,0.3,8.6,0,13,0.1c9.6,0.2,16.9,5,19,12.5C628.5,385.4,625.6,391.8,616.7,397.7z
	 M599.2,382.1c0.9,10.6-2.8,13.7,11.4,9.3c5-1.5,7.7-6.2,6.6-11.8c-1.1-5.6-6.9-8.6-15.4-7.4C596.4,372.9,598.5,374,599.2,382.1z"/>
<path class="st1" d="M213.1,393c7.6-8.3,14.7-15.2,20.7-22.9c4.4-5.6,9.4-7.1,16.5-5.6c-7.9,8.7-15.4,17.2-23.2,25.5
	c-2.9,3-3.1,4.6,0,7.8c9.6,9.7,18.6,20,27.1,29.2c-3.8,0.3-9.2,0.9-14.2-4.6c-8.1-8.9-17.3-17-26.9-26.3c0,9.4,0,17.8,0,26.2
	c0,1.6,1,4-0.8,4.5c-2.3,0.7-5,0.4-7.4,0.1c-1.1-0.1-0.7-1.7-0.7-2.6c0-19.2,0-38.3-0.1-57.5c0-4.4,3-2.4,4.9-2.6s4.4-1,4.2,2.8
	C212.9,375.2,213.1,383.5,213.1,393z"/>
<path class="st1" d="M141.3,426.9c-9,0.5-9,0.5-12.1-6.9c-5-11.8-5-11.9-17.9-11.8c-4.6,0-10.2-1.4-13.6,0.8
	c-3.1,2-4.4,7.6-5.5,11.9c-1.6,6.5-5.7,7.3-11.7,5.9c2.5-6,5-12,7.5-18c6-14.2,12-28.4,17.9-42.7c0.8-1.9,1.5-3.2,3.8-2.9
	c1.9,0.2,3.7-0.3,4.8,2.3C123.2,385.7,132.2,406.1,141.3,426.9z M100.8,399.8c6.7,0,12.8,0,19.5,0c-3.4-7.6-6.6-14.7-10.2-22.9
	C106.7,385.2,103.8,392.4,100.8,399.8z"/>
<path class="st1" d="M583.2,426.8c-8.9,0.7-8.9,0.7-12-6.7c-5.1-12-5.1-12-18.3-12c-4.5,0-10-1.5-13.2,0.6
	c-3.1,2.1-3.9,7.7-5.7,11.8c-3,7-2.9,7-11.8,6.2c6.4-15.2,12.7-30.4,19-45.5c2.2-5.4,4.4-10.7,6.8-16c1.3-2.9,6.7-3.4,7.9-0.5
	C565.2,385.3,574.1,406,583.2,426.8z M562.3,399.9c-3.3-7.5-6.5-14.7-10.2-23c-3.4,8.3-6.3,15.5-9.2,23
	C549.6,399.9,555.7,399.9,562.3,399.9z"/>
<path class="st1" d="M1003.8,426.8c-8.5,0.8-8.5,0.8-11.6-6.7c-5.1-12.1-5.1-12.1-18.2-12c-4.5,0-10-1.5-13.2,0.6
	c-3.1,2.1-4,7.7-5.7,11.8c-3,7-2.9,7-11.8,6.3c5.5-13.1,10.9-26.1,16.3-39c3.1-7.3,6.3-14.6,9.2-22c0.8-2.1,1.9-2.8,4-2.7
	c2.1,0.1,3.7,0.1,4.7,2.5c8.7,20.1,17.5,40.2,26.2,60.3C1003.9,426.1,1003.8,426.5,1003.8,426.8z M973.1,376.9
	c-3.4,8.4-6.3,15.5-9.2,22.9c6.7,0,12.8,0,19.4,0C979.9,392.3,976.8,385.2,973.1,376.9z"/>
<path class="st1" d="M699.6,412.7c1.2,8.7,0.9,9.2-6.4,12.3c-17.9,7.6-37.6,1.9-45.6-13.5c-6-11.5-5.8-23.2,1.7-34
	c7.8-11.2,19.1-15.5,32.6-14c3.6,0.4,7.2,1.5,10.6,2.7c7.4,2.6,7.4,2.7,6.6,11.5c-6.4-2.7-12.8-5.4-19.9-5.5
	c-16.3-0.3-27.1,10.3-26.2,25.7c0.8,13.8,13.6,23.2,28.9,21.2C688.3,418.2,694,415.6,699.6,412.7z"/>
<path class="st1" d="M711,395.5c0-9.2,0.1-18.3-0.1-27.5c-0.1-2.9,0.4-4.1,3.7-4c9.5,0.3,19,0.3,28.5,0c3.7-0.1,3.4,1.9,3.5,4.3
	c0.1,2.5-0.2,4-3.4,3.9c-6.5-0.2-13,0.1-19.5-0.2c-3.2-0.1-4,0.9-3.8,3.9c0.3,3.8,0.3,7.7,0,11.5c-0.3,3.3,1.1,3.8,4,3.7
	c6.2-0.2,12.3,0.1,18.5-0.1c3.1-0.1,3.5,1.3,3.4,3.9c-0.1,2.5,0.2,4.5-3.5,4.3c-6.3-0.3-12.7,0-19-0.1c-2.5-0.1-3.5,0.5-3.4,3.3
	c0.2,4.5,0.2,9,0,13.5c-0.1,2.6,0.7,3.4,3.3,3.3c7-0.2,14,0.1,21-0.1c3.5-0.1,3.3,1.7,3.2,4c-0.1,2,0.7,4.3-3,4.2
	c-10.2-0.3-20.3-0.2-30.5,0c-2.5,0-3-0.9-3-3.2C711.1,414.5,711,405,711,395.5z"/>
<path class="st1" d="M47.4,395.5c0-9.1,0.1-18.3-0.1-27.4c0-2.8,0.4-4.3,3.7-4c7.4,0.5,15-0.8,22.4,0.8c8.9,1.9,14,8.9,13.6,18.2
	c-0.3,8.6-5.8,14.7-14.6,16.3c-4.3,0.8-8.6,0.9-12.9,0.7c-2.5-0.1-3.1,0.8-3,3.1c0.1,6.7-0.2,13.3,0.1,20c0.2,4.1-1.8,4-4.7,4.1
	c-3.2,0.1-4.7-0.5-4.6-4.2C47.6,413.8,47.4,404.7,47.4,395.5z M63.3,392c1.8,0,3.7,0.2,5.5,0c5.2-0.6,8.4-3.8,8.9-8.6
	c0.8-6.7-3-10.8-10.2-11.3c-11-0.7-11-0.7-11,8.6c0,1.5,0,3,0,4.5C56.5,392.1,56.5,392.1,63.3,392z"/>
<path class="st1" d="M775.2,427.1c-5,0-10-0.2-15,0.1c-2.7,0.1-3.3-0.9-3.3-3.4c0.1-18.8,0.2-37.7,0-56.5c0-4.5,2.8-2.9,5-3.2
	c2.5-0.3,4.3-0.2,4.2,3.4c-0.2,15.8,0,31.7-0.2,47.5c0,3.2,0.8,4.3,4.1,4.1c6.8-0.3,13.7,0.1,20.5-0.2c3.3-0.1,3.9,1.1,3.7,4
	c-0.1,2.5,0.2,4.5-3.5,4.2C785.6,426.8,780.4,427.1,775.2,427.1z"/>
<path class="st0" d="M441,81.9c0,58.3-0.1,116.7-0.1,175c-2.8,0.6-4.1,0.1-4.1-3.4c0.1-55.9,0.1-111.7,0-167.6
	C436.9,83,437.5,81.1,441,81.9z"/>
<path class="st0" d="M446.1,80"/>
<path class="st0" d="M511.9,167.9c16.1-8.7,22.8-22.7,18.2-38.1c-2.9-9.6-9.7-15.6-18.5-19.7c-1.6-0.8-3.4-1.4-5-2.1
	c13,0.4,26.1,11.8,28.4,24.6c2.7,14.9-5.4,29.9-18.6,34.9C514.8,168.1,513.4,168.1,511.9,167.9z"/>
</svg>
