<?xml version="1.0" encoding="utf-8"?>
<!-- Generator: Adobe Illustrator 20.1.0, SVG Export Plug-In . SVG Version: 6.00 Build 0)  -->
<svg version="1.1" id="Capa_1" xmlns="http://www.w3.org/2000/svg" xmlns:xlink="http://www.w3.org/1999/xlink" x="0px" y="0px"
	 viewBox="0 0 956.1 755.2" style="enable-background:new 0 0 956.1 755.2;" xml:space="preserve">
<style type="text/css">
	.st0{fill:#262626;}
	.st1{fill:#D42200;}
</style>
<path class="st0" d="M0,746.9c1.5-4.3,0.9-8.8,0.9-13.3c0-4.9-0.2-9.8-0.2-14.6c0.1-6.6-0.4-13.1-0.2-19.7
	c0.3-10.3,0.2-20.6,0.8-30.9c0.2-3.4,0.1-6.9,0.2-10.3c0.3-18.2,0.1-36.5,0.2-54.7c0-1.1,0-2.2,0.2-3.3c0.2-1.7,1-2.4,2.7-2.5
	c0.7-0.1,1.4,0,2.2,0c24.3,0,48.6,0,73,0c2.2,0,4.5-0.2,6.7-0.1c3.2,0.1,3.9,0.9,3.9,4.1c0,19.4-0.1,38.7-0.1,58.1
	c0,1.1,0,2.2,0.1,3.4c0.2,2,1.3,3,3.2,3.3c0.8,0.1,1.6,0.1,2.4,0.1c66.6,0,133.1,0,199.7,0c121,0,242.1-0.1,363.1-0.1
	c67.4,0,134.7,0.1,202.1,0.1c5.2,0,6.1-0.9,6.1-6.1c0-19-0.1-38.1-0.1-57.1c0-5.1,0.6-5.7,5.6-5.7c24.1,0,48.2,0.1,72.2,0.1
	c2.4,0,4.8-0.3,7.2,0c2.6,0.3,3.3,1,3.6,3.6c0,0.5,0,1,0,1.4c0.1,17.5,0.2,35,0.2,52.5c0.1,19.9,0.1,39.8,0.1,59.8
	c0,11,0.1,22.1,0,33.1c0,1.5,0.6,3,0.1,4.7c-0.4,1.3-1,1.9-2.3,2c-1.2,0.1-2.4,0.1-3.6,0.1c-9.1,0-18.2-0.1-27.4-0.1
	c-26.1,0-52.2,0-78.2,0c-276.3,0-552.6,0.1-828.9,0.1c-2.6,0-5.1,0.4-7.6,0.5c-3.4,0.2-6.3-0.6-7.8-4C0,749.8,0,748.3,0,746.9z"/>
<path class="st0" d="M894.2,0c0.7,0.6,1.5,0.3,2.3,0.3c13.3,0.1,26.6,0.1,39.8,0.2c4.7,0,9.4,0.1,14.2,0.1c0.8,0,1.6,0.1,2.4,0.3
	c1.3,0.3,2.1,1.1,2.3,2.4c0.1,0.9,0.2,1.7,0.2,2.6c0,10.4,0.1,20.8,0,31.2c-0.3,28.2-0.1,56.3-0.1,84.5c0,10.1,0,20.2,0.1,30.2
	c0,0.9,0,1.8-0.1,2.6c-0.3,2.2-1,2.9-3.2,3c-1.2,0.1-2.4,0-3.6,0c-24.5,0-49,0-73.4,0c-1.8,0-3.5,0.2-5.3,0c-2.1-0.2-2.8-1-2.9-3.1
	c0-0.6,0-1.3,0-1.9c0-15.5,0-31,0-46.6c0-4.3,0.1-8.6,0.1-13c0-3.4-1.1-4.4-4.5-4.5c-0.6,0-1.3,0-1.9,0c-254.6,0-509.3,0-763.9,0
	c-1.2,0-2.4-0.1-3.6,0.2c-1.8,0.5-2.6,1.3-2.8,3.1c-0.1,0.6,0,1.3,0,1.9c0,15.8,0,31.7,0,47.5c0,3.7,0.1,7.4,0.1,11
	c0,0.7,0,1.4-0.1,2.2c-0.2,2-1,2.9-3,3c-1.7,0.2-3.4,0.1-5,0.1c-24.2,0-48.3-0.1-72.5-0.1c-1.6,0-3.2,0.2-4.8,0c-2-0.2-2.8-1-3-3
	c-0.1-0.9-0.1-1.8-0.2-2.6c0-0.9,0-1.8,0-2.6c-0.1-19-0.2-38.1-0.2-57.1c-0.1-11-0.1-21.9-0.3-32.9C0.9,42.1,1,24.9,1,7.8
	c0-1.4,0-2.7-0.1-4.1C0.8,2.2,1.2,1,2.4,0C299.7,0,597,0,894.2,0z"/>
<path class="st0" d="M350.3,394.7c0,1.2-0.6,1.9-1.1,2.6c-27.5,49.6-55.1,99.2-82.7,148.7c-11,19.8-21.9,39.6-32.9,59.3
	c-0.4,0.7-0.8,1.4-1.2,2.1c-1.5,2.4-3.7,3.7-6.6,3.7c-4.4,0-8.8,0-13.2,0c-1,0-1.9-0.1-2.9-0.1c-23.6,0-47.2,0-70.8,0
	c-0.9,0-2.1,0.5-2.7-0.5c-0.7-1.1,0.3-1.9,0.8-2.8c4.5-7.9,9-15.9,13.4-23.8c22.2-39.2,44.4-78.5,66.5-117.7c2.6-4.6,2.5-5.4-2-8.2
	c-12.5-7.9-24.1-16.9-34.5-27.4c-21-21.3-34.8-46.6-41.2-75.8c-3-13.8-4.4-27.8-4-41.9c1.3-38.8,14.5-73,40.2-102.3
	c19.8-22.5,44.3-38.1,72.5-48c14.8-5.2,29.9-8.5,45.5-10.2c12.7-1.4,25.5-1.5,38.3-1.3c11.7,0.2,23.3,1.1,34.9,2.5
	c24.5,3,48.5,8.3,71.7,16.6c5.7,2,11.5,3.9,17.2,5.9c2.7,0.9,3.1,1.5,3.2,4.3c0,0.6,0,1.1,0,1.7c0,136.4,0,272.8,0,409.2
	c0,4.4,0.1,8.8,0.1,13.2c0,1.1-0.1,2.2-0.2,3.3c-0.3,2.2-1.1,3.1-3.4,3.2c-3,0.1-5.9,0.1-8.9,0.1c-3,0-5.9-0.1-8.9-0.1
	c-16.8,0-33.6,0-50.4,0c-3.6,0-7.2,0.1-10.8,0.1c-0.6,0-1.3,0-1.9,0c-2.6-0.2-3.6-1.2-3.7-3.8c-0.1-2.6-0.1-5.3-0.1-7.9
	c0-1.3,0.1-2.6,0.1-3.8c0-85.8,0-171.5,0-257.3c0-29.4,0-58.7,0.1-88.1c0-6.4-1.7-7.1-6.7-7.8c-7.2-1.1-14.4-1.9-21.7-2.4
	c-9.1-0.7-18.2-0.9-27.3-0.4c-12,0.6-23.9,1.8-35.4,5.6c-19.4,6.4-34.8,17.9-45.8,35.2c-6.3,10-9.6,21-10.2,32.8
	c-1.1,22.6,6.4,42.1,22.2,58.2c12.4,12.5,27.6,20,45.1,22.5c3.6,0.5,7.3,0.7,11,0.7c15.2,0,30.4,0,45.6,0
	C348.7,394.7,349.4,394.7,350.3,394.7z"/>
<path class="st1" d="M499.1,395.7c0-49.1,0.1-98.2,0-147.4c-0.1-21.4,0-42.9-0.1-64.3c0-6.3,1.7-7.3,6.3-9c19.6-7,39.7-12.2,60-16.2
	c11.4-2.3,22.8-4.1,34.3-5.6c9.8-1.3,19.7-1.9,29.6-2.1c9-0.2,17.9-0.2,26.9,0.2c23.9,1.1,47.2,5,69.3,14.3
	c20.8,8.7,39.8,20.5,56.2,36c21.9,20.7,36.2,45.9,43.5,75c2.9,11.3,4.8,22.9,5.2,34.5c1.7,46.2-13.6,86.2-45.2,119.7
	c-23.6,25.1-52.6,41-86.2,48.4c-8.7,1.9-17.5,3-26.4,3.3c-2.3,0.1-4.6,0.2-7,0.2c-18.1,0-36.2,0.1-54.2,0.1c-3.9,0-7.8-0.1-11.8-0.1
	c-0.8,0-1.6,0-2.4,0.1c-1.7,0.2-2.6,1.1-2.9,2.7c-0.1,0.8-0.1,1.6-0.1,2.4c0,24.3,0,48.6,0,73c0,15.2,0,30.4,0.1,45.6
	c0,0.5,0,1,0,1.4c0,3.8-1.1,4.8-4.9,4.8c-26.5,0-53-0.1-79.4-0.2c-2.5,0-4.9-0.1-7.4,0c-2.7,0.1-3.2-0.5-3.4-3.2
	c-0.1-1-0.1-1.9-0.1-2.9C499.1,536.3,499.1,466,499.1,395.7z M594.2,319c0,7.5,0,15,0,22.6c0,16.3,0,32.6,0,49
	c0,3.6,0.9,4.5,4.5,4.6c1,0,1.9,0,2.9,0c11.6-0.1,23.2-0.2,34.8-0.2c9.6-0.1,19.2-0.1,28.8-0.2c2.7,0,5.4-0.2,8.1-0.7
	c8-1.5,15.8-4.1,22.9-8.3c24.6-14.6,38-36.1,39.7-64.7c0.8-13.5-1.8-26.5-8.5-38.3c-9.4-16.6-23.1-28.6-40.8-35.9
	c-7.3-3-14.8-4.8-22.7-5.7c-9.1-1.1-18.3-1.9-27.5-1.9c-8.4,0-16.8,0.6-25.1,1.5c-4.4,0.5-8.8,0.9-13.1,1.7
	c-2.8,0.6-3.8,1.8-3.9,4.6c0,0.6,0,1.3,0,1.9C594.2,272.2,594.2,295.6,594.2,319z"/>
</svg>
